<svg width="208" height="24" viewBox="0 0 208 24" fill="none" xmlns="http://www.w3.org/2000/svg">
<path d="M33.9658 11.0041V21.0001H36.1638V16.6881H40.2098V21.0001H42.4078V11.0041H40.2098V14.8401H36.1638V11.0041H33.9658Z" fill="#34C759"/>
<path d="M46.4428 11.0041V21.0001H54.0308V19.1521H48.6408V16.7021H53.4848V14.9941H48.6408V12.8521H53.9188V11.0041H46.4428Z" fill="#34C759"/>
<path d="M60.1409 17.1361L61.4429 13.4681H61.4709L62.7309 17.1361H60.1409ZM60.3509 11.0041L56.5709 21.0001H58.7829L59.5669 18.7741H63.3049L64.0609 21.0001H66.3429L62.6049 11.0041H60.3509Z" fill="#34C759"/>
<path d="M69.3049 11.0041V21.0001H76.3749V19.1521H71.5029V11.0041H69.3049Z" fill="#34C759"/>
<path d="M80.6306 12.8521V21.0001H82.8286V12.8521H85.8246V11.0041H77.6346V12.8521H80.6306Z" fill="#34C759"/>
<path d="M89.0771 11.0041V21.0001H91.2752V16.6881H95.3211V21.0001H97.5191V11.0041H95.3211V14.8401H91.2752V11.0041H89.0771Z" fill="#34C759"/>
<path d="M104.144 17.1081V21.0001H106.342V17.1641L110.052 11.0041H107.602L105.278 14.9521L102.94 11.0041H100.476L104.144 17.1081Z" fill="#34C759"/>
<path d="M120.486 17.6821H118.358C118.349 18.2981 118.461 18.8301 118.694 19.2781C118.928 19.7261 119.24 20.0948 119.632 20.3841C120.034 20.6734 120.491 20.8834 121.004 21.0141C121.527 21.1541 122.064 21.2241 122.614 21.2241C123.296 21.2241 123.893 21.1448 124.406 20.9861C124.929 20.8274 125.363 20.6081 125.708 20.3281C126.063 20.0388 126.329 19.6981 126.506 19.3061C126.684 18.9141 126.772 18.4894 126.772 18.0321C126.772 17.4721 126.651 17.0148 126.408 16.6601C126.175 16.2961 125.895 16.0068 125.568 15.7921C125.242 15.5774 124.91 15.4234 124.574 15.3301C124.248 15.2274 123.991 15.1574 123.804 15.1201C123.179 14.9614 122.67 14.8308 122.278 14.7281C121.896 14.6254 121.592 14.5228 121.368 14.4201C121.154 14.3174 121.009 14.2054 120.934 14.0841C120.86 13.9628 120.822 13.8041 120.822 13.6081C120.822 13.3934 120.869 13.2161 120.962 13.0761C121.056 12.9361 121.172 12.8194 121.312 12.7261C121.462 12.6328 121.625 12.5674 121.802 12.5301C121.98 12.4928 122.157 12.4741 122.334 12.4741C122.605 12.4741 122.852 12.4974 123.076 12.5441C123.31 12.5908 123.515 12.6701 123.692 12.7821C123.87 12.8941 124.01 13.0481 124.112 13.2441C124.224 13.4401 124.29 13.6874 124.308 13.9861H126.436C126.436 13.4074 126.324 12.9174 126.1 12.5161C125.886 12.1054 125.592 11.7694 125.218 11.5081C124.845 11.2468 124.416 11.0601 123.93 10.9481C123.454 10.8268 122.955 10.7661 122.432 10.7661C121.984 10.7661 121.536 10.8268 121.088 10.9481C120.64 11.0694 120.239 11.2561 119.884 11.5081C119.53 11.7601 119.24 12.0774 119.016 12.4601C118.802 12.8334 118.694 13.2768 118.694 13.7901C118.694 14.2474 118.778 14.6394 118.946 14.9661C119.124 15.2834 119.352 15.5494 119.632 15.7641C119.912 15.9788 120.23 16.1561 120.584 16.2961C120.939 16.4268 121.303 16.5388 121.676 16.6321C122.04 16.7348 122.4 16.8281 122.754 16.9121C123.109 16.9961 123.426 17.0941 123.706 17.2061C123.986 17.3181 124.21 17.4581 124.378 17.6261C124.556 17.7941 124.644 18.0134 124.644 18.2841C124.644 18.5361 124.579 18.7461 124.448 18.9141C124.318 19.0728 124.154 19.1988 123.958 19.2921C123.762 19.3854 123.552 19.4508 123.328 19.4881C123.104 19.5161 122.894 19.5301 122.698 19.5301C122.409 19.5301 122.129 19.4974 121.858 19.4321C121.588 19.3574 121.35 19.2501 121.144 19.1101C120.948 18.9608 120.79 18.7694 120.668 18.5361C120.547 18.3028 120.486 18.0181 120.486 17.6821Z" fill="#34C759"/>
<path d="M139.7 21.0001L142.388 11.0041H140.232L138.594 17.8921H138.566L136.858 11.0041H134.8L133.064 17.8081H133.036L131.454 11.0041H129.256L131.902 21.0001H134.128L135.794 14.1961H135.822L137.516 21.0001H139.7Z" fill="#34C759"/>
<path d="M145.501 11.0041V21.0001H147.699V11.0041H145.501Z" fill="#34C759"/>
<path d="M153.942 12.8521V21.0001H156.14V12.8521H159.136V11.0041H150.946V12.8521H153.942Z" fill="#34C759"/>
<path d="M169.052 14.3641H171.18C171.115 13.7854 170.956 13.2721 170.704 12.8241C170.452 12.3761 170.13 12.0028 169.738 11.7041C169.356 11.3961 168.917 11.1628 168.422 11.0041C167.937 10.8454 167.419 10.7661 166.868 10.7661C166.103 10.7661 165.412 10.9014 164.796 11.1721C164.19 11.4428 163.676 11.8161 163.256 12.2921C162.836 12.7681 162.514 13.3281 162.29 13.9721C162.066 14.6068 161.954 15.2974 161.954 16.0441C161.954 16.7721 162.066 17.4534 162.29 18.0881C162.514 18.7134 162.836 19.2594 163.256 19.7261C163.676 20.1928 164.19 20.5614 164.796 20.8321C165.412 21.0934 166.103 21.2241 166.868 21.2241C167.484 21.2241 168.049 21.1308 168.562 20.9441C169.076 20.7574 169.524 20.4868 169.906 20.1321C170.289 19.7774 170.597 19.3481 170.83 18.8441C171.064 18.3401 171.208 17.7754 171.264 17.1501H169.136C169.052 17.8221 168.819 18.3634 168.436 18.7741C168.063 19.1848 167.54 19.3901 166.868 19.3901C166.374 19.3901 165.954 19.2968 165.608 19.1101C165.263 18.9141 164.983 18.6574 164.768 18.3401C164.554 18.0228 164.395 17.6681 164.292 17.2761C164.199 16.8748 164.152 16.4641 164.152 16.0441C164.152 15.6054 164.199 15.1808 164.292 14.7701C164.395 14.3594 164.554 13.9954 164.768 13.6781C164.983 13.3514 165.263 13.0948 165.608 12.9081C165.954 12.7121 166.374 12.6141 166.868 12.6141C167.139 12.6141 167.396 12.6608 167.638 12.7541C167.89 12.8381 168.114 12.9594 168.31 13.1181C168.506 13.2768 168.67 13.4634 168.8 13.6781C168.931 13.8834 169.015 14.1121 169.052 14.3641Z" fill="#34C759"/>
<path d="M174.865 11.0041V21.0001H177.063V16.6881H181.109V21.0001H183.307V11.0041H181.109V14.8401H177.063V11.0041H174.865Z" fill="#34C759"/>
<path d="M187.342 11.0041V21.0001H194.93V19.1521H189.54V16.7021H194.384V14.9941H189.54V12.8521H194.818V11.0041H187.342Z" fill="#34C759"/>
<path d="M200.719 15.5261V12.7121H203.127C203.631 12.7121 204.008 12.8241 204.26 13.0481C204.512 13.2628 204.639 13.6128 204.639 14.0981C204.639 14.6021 204.512 14.9661 204.26 15.1901C204.008 15.4141 203.631 15.5261 203.127 15.5261H200.719ZM198.521 11.0041V21.0001H200.719V17.0941H202.917C203.467 17.0941 203.864 17.2154 204.107 17.4581C204.349 17.7008 204.508 18.0834 204.583 18.6061C204.639 19.0074 204.681 19.4274 204.709 19.8661C204.737 20.3048 204.811 20.6828 204.933 21.0001H207.131C207.028 20.8601 206.949 20.6921 206.893 20.4961C206.846 20.2908 206.809 20.0761 206.781 19.8521C206.762 19.6281 206.748 19.4088 206.739 19.1941C206.729 18.9794 206.72 18.7928 206.711 18.6341C206.692 18.3821 206.655 18.1301 206.599 17.8781C206.552 17.6261 206.473 17.3974 206.361 17.1921C206.249 16.9774 206.104 16.7954 205.926 16.6461C205.749 16.4874 205.525 16.3708 205.255 16.2961V16.2681C205.815 16.0441 206.216 15.7174 206.459 15.2881C206.711 14.8588 206.837 14.3501 206.837 13.7621C206.837 13.3794 206.767 13.0248 206.627 12.6981C206.496 12.3621 206.3 12.0681 206.038 11.8161C205.786 11.5641 205.479 11.3681 205.115 11.2281C204.76 11.0788 204.359 11.0041 203.911 11.0041H198.521Z" fill="#34C759"/>
<g clip-path="url(#clip0_1_66)">
<path d="M17.0984 8.16492H7.90162C3.53781 8.16492 0 11.7087 0 16.0817C0 20.4547 3.53781 24 7.90162 24H17.0984C21.4622 24 25 20.4547 25 16.0817C25 11.7087 21.4622 8.16492 17.0984 8.16492ZM16.9261 23.0921C13.0637 23.0921 9.93201 19.9537 9.93201 16.0832C9.93201 12.2127 13.0637 9.07436 16.9261 9.07436C20.7885 9.07436 23.9202 12.2127 23.9202 16.0832C23.9202 19.9537 20.7885 23.0921 16.9261 23.0921Z" fill="#34C759"/>
<path d="M16.0047 4.68437C16.0047 5.68167 16.2631 6.61732 16.7169 7.42811C14.5112 7.04738 12.833 5.1206 12.833 2.80075C12.833 2.50942 12.8592 2.22426 12.9115 1.9468C13.3421 1.81578 13.8005 1.74487 14.2743 1.74487C15.0895 1.74487 15.8571 1.95451 16.5246 2.32137C16.1908 3.03967 16.0047 3.83967 16.0047 4.68437Z" fill="#34C759"/>
<path d="M22.2069 2.80077C22.2069 4.92023 20.8072 6.71137 18.8829 7.29557C18.5522 7.39576 18.2076 7.46204 17.8493 7.48516H17.8477C17.2678 6.70366 16.9248 5.7341 16.9248 4.68439C16.9248 4.03391 17.0571 3.41426 17.2955 2.8501C17.9677 1.26243 19.4859 0.123314 21.284 0C21.8639 0.781503 22.2069 1.75106 22.2069 2.80077Z" fill="#34C759"/>
</g>
<defs>
<clipPath id="clip0_1_66">
<rect width="25" height="24" fill="white"/>
</clipPath>
</defs>
</svg>
